<svg width="15" height="15" viewBox="0 0 15 15" fill="none" xmlns="http://www.w3.org/2000/svg">
<g clip-path="url(#clip0_7_19)">
<path d="M14.9851 4.41003C14.95 3.61302 14.8211 3.06508 14.6364 2.59029C14.446 2.08631 14.1529 1.63509 13.769 1.26C13.3939 0.879063 12.9397 0.583061 12.4416 0.39557C11.9641 0.210941 11.419 0.0820549 10.622 0.0469147C9.81902 0.00879841 9.56411 -1.52588e-05 7.52758 -1.52588e-05C5.49105 -1.52588e-05 5.23615 0.00879841 4.43616 0.0439386C3.63915 0.0790789 3.09122 0.208079 2.61654 0.392594C2.11244 0.583061 1.66123 0.876087 1.28613 1.26C0.9052 1.63509 0.609313 2.08928 0.421708 2.58743C0.237079 3.06508 0.108193 3.61004 0.073053 4.40705C0.0349367 5.21001 0.026123 5.46492 0.026123 7.50145C0.026123 9.53798 0.0349367 9.79289 0.0700769 10.5929C0.105217 11.3899 0.234217 11.9378 0.418846 12.4126C0.609313 12.9166 0.9052 13.3678 1.28613 13.7429C1.66123 14.1238 2.11542 14.4198 2.61356 14.6073C3.09122 14.792 3.63618 14.9208 4.4333 14.956C5.23317 14.9912 5.48819 14.9999 7.52472 14.9999C9.56125 14.9999 9.81616 14.9912 10.6161 14.956C11.4132 14.9208 11.9611 14.792 12.4358 14.6073C13.4438 14.2176 14.2409 13.4206 14.6306 12.4126C14.8151 11.935 14.9441 11.3899 14.9793 10.5929C15.0144 9.79289 15.0232 9.53798 15.0232 7.50145C15.0232 5.46492 15.0202 5.21001 14.9851 4.41003ZM13.6343 10.5343C13.602 11.2668 13.479 11.6624 13.3764 11.9261C13.1244 12.5796 12.6057 13.0982 11.9523 13.3503C11.6886 13.4529 11.2901 13.5759 10.5604 13.6081C9.76923 13.6433 9.53195 13.652 7.53056 13.652C5.52917 13.652 5.28891 13.6433 4.5006 13.6081C3.76804 13.5759 3.37246 13.4529 3.10873 13.3503C2.78354 13.2301 2.48754 13.0396 2.24728 12.7906C1.99821 12.5473 1.80774 12.2543 1.68756 11.9291C1.585 11.6654 1.46195 11.2668 1.42979 10.5372C1.39453 9.74608 1.38583 9.50868 1.38583 7.50729C1.38583 5.5059 1.39453 5.26564 1.42979 4.47745C1.46195 3.74488 1.585 3.34929 1.68756 3.08557C1.80774 2.76027 1.99821 2.46438 2.25026 2.22401C2.49338 1.97493 2.7864 1.78447 3.11171 1.6644C3.37543 1.56184 3.77399 1.43879 4.50358 1.40651C5.29475 1.37137 5.53215 1.36256 7.53342 1.36256C9.53779 1.36256 9.77507 1.37137 10.5634 1.40651C11.2959 1.43879 11.6915 1.56184 11.9552 1.6644C12.2804 1.78447 12.5764 1.97493 12.8167 2.22401C13.0658 2.46724 13.2562 2.76027 13.3764 3.08557C13.479 3.34929 13.602 3.74774 13.6343 4.47745C13.6695 5.26862 13.6783 5.5059 13.6783 7.50729C13.6783 9.50868 13.6695 9.7431 13.6343 10.5343Z" fill="white"/>
<path d="M7.52785 3.64828C5.40055 3.64828 3.67456 5.37416 3.67456 7.50158C3.67456 9.62899 5.40055 11.3549 7.52785 11.3549C9.65526 11.3549 11.3811 9.62899 11.3811 7.50158C11.3811 5.37416 9.65526 3.64828 7.52785 3.64828ZM7.52785 10.0011C6.14777 10.0011 5.02832 8.88178 5.02832 7.50158C5.02832 6.12138 6.14777 5.00204 7.52785 5.00204C8.90805 5.00204 10.0274 6.12138 10.0274 7.50158C10.0274 8.88178 8.90805 10.0011 7.52785 10.0011Z" fill="white"/>
<path d="M12.4333 3.49582C12.4333 3.99259 12.0305 4.39539 11.5336 4.39539C11.0368 4.39539 10.634 3.99259 10.634 3.49582C10.634 2.99893 11.0368 2.59625 11.5336 2.59625C12.0305 2.59625 12.4333 2.99893 12.4333 3.49582Z" fill="white"/>
</g>
<defs>
<clipPath id="clip0_7_19">
<rect width="15" height="15" fill="white"/>
</clipPath>
</defs>
</svg>
